Hum Hain Rahi Pyar Ke (1993) 1CD DVDRip
credits to team bindass

FILE INFO

Soucre : DVD 9 @ Team Bindass
Format : AVI
Format/Info : Audio Video Interleave
Format profile : OpenDML
File size : 686 MiB
Duration : 2h 35mn
Overall bit rate : 617 Kbps
Writing application : AVI-Mux GUI 1.17.8.3, Feb 16 201019:42:50

Video
ID : 0
Format : MPEG-4 Visual
Format profile : AdvancedSimple@L5
Format settings, BVOP : Yes
Format settings, QPel : Yes
Format settings, GMC : No warppoints
Format settings, Matrix : Default (H.263)
Codec ID : XVID
Codec ID/Hint : XviD
Duration : 2h 35mn
Bit rate : 519 Kbps
Width : 608 pixels
Height : 288 pixels
Display aspect ratio : 2.2:1
Frame rate : 23.976 fps
Resolution : 24 bits
Colorimetry : 4:2:0
Scan type : Progressive
Bits/(Pixel*Frame) : 0.124
Stream size : 577 MiB (84%)
Writing library : XviD 1.2.1 (UTC 2008-12-04)

Audio
ID : 1
Format : MPEG Audio
Format version : Version 1
Format profile : Layer 3
Format_Settings_Mode : Joint stereo / MS Stereo
Codec ID : 55
Codec ID/Hint : MP3
Duration : 2h 35mn
Bit rate mode : Variable
Bit rate : 91.0 Kbps
Channel(s) : 2 channels
Sampling rate : 32.0 KHz
Resolution : 16 bits
Stream size : 101 MiB (15%)
Alignment : Aligned on interleaves
Interleave, duration : 36 ms (0.86 video frame)
Interleave, preload duration : 208 ms